<?xml version="1.0" encoding="UTF-8" standalone="no" ?>
<!DOCTYPE svg PUBLIC "-//W3C//DTD SVG 1.1//EN" "http://www.w3.org/Graphics/SVG/1.1/DTD/svg11.dtd">
<svg xmlns="http://www.w3.org/2000/svg" xmlns:xlink="http://www.w3.org/1999/xlink" version="1.1" width="1080" height="1080" viewBox="0 0 1080 1080" xml:space="preserve">
<desc>Created with Fabric.js 5.2.4</desc>
<defs>
</defs>
<g transform="matrix(1 0 0 1 540 540)" id="88ed457a-7c0d-4d2c-8f6f-7a21b1dfa421"  >
<rect style="stroke: none; stroke-width: 1; stroke-dasharray: none; stroke-linecap: butt; stroke-dashoffset: 0; stroke-linejoin: miter; stroke-miterlimit: 4; fill: rgb(255,255,255); fill-rule: nonzero; opacity: 1; visibility: hidden;" vector-effect="non-scaling-stroke"  x="-540" y="-540" rx="0" ry="0" width="1080" height="1080" />
</g>
<g transform="matrix(1 0 0 1 540 540)" id="d592065c-f26f-437a-907a-b5463202b2f7"  >
</g>
<g transform="matrix(NaN NaN NaN NaN 0 0)"  >
<g style=""   >
</g>
</g>
<g transform="matrix(1.19 0 0 1.19 387.68 523.22)" id="b-302"  >
<path style="stroke: none; stroke-width: 1; stroke-dasharray: none; stroke-linecap: butt; stroke-dashoffset: 0; stroke-linejoin: miter; stroke-miterlimit: 4; fill: rgb(255,182,182); fill-rule: nonzero; opacity: 1;" vector-effect="non-scaling-stroke"  transform=" translate(-154.65, -320.44)" d="M 165.74995 329.79389 C 167.80100000000002 335.86404999999996 166.33151 341.8427 162.46821 343.14736999999997 C 158.60491 344.45203999999995 153.81162 340.58890999999994 151.76065 334.51631999999995 C 150.9081 332.10179999999997 150.64617 329.51822999999996 150.9968 326.98173999999995 L 142.63121 301.15247999999997 L 154.8358 297.48510999999996 L 161.78705 323.33754 C 163.60469 325.14229 164.96358 327.35618 165.74996 329.79389 Z" stroke-linecap="round" />
</g>
<g transform="matrix(1.19 0 0 1.19 386.26 440.6)"  >
<path style="stroke: none; stroke-width: 1; stroke-dasharray: none; stroke-linecap: butt; stroke-dashoffset: 0; stroke-linejoin: miter; stroke-miterlimit: 4; fill: rgb(108,99,255); fill-rule: nonzero; opacity: 1;" vector-effect="non-scaling-stroke"  transform=" translate(-153.45, -251)" d="M 170.87423 183.50231 C 170.87423 183.50231 152.44596 184.30354 151.64473 193.91828999999998 C 150.8435 203.53303999999997 127.95313000000002 263.50230999999997 127.95313000000002 263.50230999999997 L 145.95313000000002 318.50230999999997 L 159.95313000000002 309.50230999999997 L 151.95313000000002 266.50230999999997 L 178.95313000000002 225.50230999999997 L 170.87423 183.50230999999997 Z" stroke-linecap="round" />
</g>
<g transform="matrix(1.19 0 0 1.19 364.61 799.96)"  >
<polygon style="stroke: none; stroke-width: 1; stroke-dasharray: none; stroke-linecap: butt; stroke-dashoffset: 0; stroke-linejoin: miter; stroke-miterlimit: 4; fill: rgb(255,182,182); fill-rule: nonzero; opacity: 1;" vector-effect="non-scaling-stroke"  points="-10.36,21.24 -0.61,22.71 10.36,-20.55 -4.03,-22.71 -10.36,21.24 " />
</g>
<g transform="matrix(1.19 0 0 1.19 363.79 827.31)"  >
<path style="stroke: none; stroke-width: 1; stroke-dasharray: none; stroke-linecap: butt; stroke-dashoffset: 0; stroke-linejoin: miter; stroke-miterlimit: 4; fill: rgb(47,46,65); fill-rule: nonzero; opacity: 1;" vector-effect="non-scaling-stroke"  transform=" translate(-134.57, -576.03)" d="M 155.88456 598.90391 L 155.88456 598.90391 C 155.67677 600.55615 154.33578 601.74813 152.88936999999999 601.56622 L 133.47585999999998 599.1246900000001 C 133.47585999999998 599.1246900000001 132.53122 591.2049200000001 125.15765999999998 586.9204100000001 L 123.23861999999998 597.83721 L 113.22386999999998 596.57771 L 116.65856999999998 579.06787 C 116.65856999999998 579.06787 115.16797999999999 569.28148 121.33915999999998 565.1509 C 127.51039999999998 561.02033 122.91939999999998 561.12599 122.91939999999998 561.12599 L 126.48290999999998 550.46953 L 141.39246999999997 554.1523599999999 L 139.34559 571.3265899999999 L 144.54754 589.2833499999999 L 154.65036 595.9593 C 155.54956 596.55348 156.0345 597.71065 155.88444 598.90386 L 155.88456000000002 598.90391 Z" stroke-linecap="round" />
</g>
<g transform="matrix(1.19 0 0 1.19 502.29 802.1)"  >
<polygon style="stroke: none; stroke-width: 1; stroke-dasharray: none; stroke-linecap: butt; stroke-dashoffset: 0; stroke-linejoin: miter; stroke-miterlimit: 4; fill: rgb(255,182,182); fill-rule: nonzero; opacity: 1;" vector-effect="non-scaling-stroke"  points="-7.68,22.08 2.18,22.32 7.68,-21.97 -6.87,-22.32 -7.68,22.08 " />
</g>
<g transform="matrix(1.19 0 0 1.19 508.05 828.23)"  >
<path style="stroke: none; stroke-width: 1; stroke-dasharray: none; stroke-linecap: butt; stroke-dashoffset: 0; stroke-linejoin: miter; stroke-miterlimit: 4; fill: rgb(47,46,65); fill-rule: nonzero; opacity: 1;" vector-effect="non-scaling-stroke"  transform=" translate(-255.82, -576.8)" d="M 277.12419 597.48706 L 277.12419 597.48706 C 277.12419 599.15232 275.94242 600.5023100000001 274.48462 600.5023100000001 L 254.91818 600.5023100000001 C 254.91818 600.5023100000001 252.99268 592.76232 245.14213 589.4313700000001 L 244.6003 600.5023100000001 L 234.50666 600.5023100000001 L 235.72961 582.7007400000001 C 235.72961 582.7007400000001 233.02951000000002 573.1768400000001 238.63704 568.3084900000001 C 244.24463 563.4401400000002 239.70269000000002 564.1178500000001 239.70269000000002 564.1178500000001 L 241.90862 553.1000200000001 L 257.1612 554.89363 L 257.27335 572.18904 L 264.67530999999997 589.35635 L 275.53220999999996 594.71948 C 276.49852999999996 595.19681 277.12406999999996 596.2844299999999 277.12406999999996 597.48703 L 277.12418999999994 597.48706 Z" stroke-linecap="round" />
</g>
<g transform="matrix(1.19 0 0 1.19 434.2 633.53)"  >
<polygon style="stroke: none; stroke-width: 1; stroke-dasharray: none; stroke-linecap: butt; stroke-dashoffset: 0; stroke-linejoin: miter; stroke-miterlimit: 4; fill: rgb(47,46,65); fill-rule: nonzero; opacity: 1;" vector-effect="non-scaling-stroke"  points="-24.14,-128.15 -43.13,-65.38 -39.72,29.53 -67.11,126.35 -45.36,126.35 -0.04,30.83 12.2,-53.81 46.07,129.8 67.11,129.8 62.2,-62.65 46.89,-129.8 -24.14,-128.15 " />
</g>
<g transform="matrix(1.19 0 0 1.19 447.8 436.74)"  >
<path style="stroke: none; stroke-width: 1; stroke-dasharray: none; stroke-linecap: butt; stroke-dashoffset: 0; stroke-linejoin: miter; stroke-miterlimit: 4; fill: rgb(108,99,255); fill-rule: nonzero; opacity: 1;" vector-effect="non-scaling-stroke"  transform=" translate(-205.18, -247.76)" d="M 218.3437 160.29523 L 191.08885 158.64342 L 183.65571 173.50969999999998 L 156.40086 188.37597999999997 L 176.22257 241.23386999999997 L 159.95313 314.50230999999997 C 159.95313 314.50230999999997 176.69137999999998 298.94395999999995 195.95313 318.50230999999997 C 224.47831 347.46673999999996 253.95313 333.50230999999997 253.95313 333.50230999999997 L 236.95313 256.50230999999997 L 242.95313 192.50230999999997 C 243.72406999999998 187.45337999999995 250.78318 181.16263999999995 245.95313 179.50230999999997 L 225.77683 171.03198999999998 L 218.34368999999998 160.29522999999998 Z" stroke-linecap="round" />
</g>
<g transform="matrix(1.19 0 0 1.19 432.59 303.52)" id="c-303"  >
<path style="stroke: none; stroke-width: 1; stroke-dasharray: none; stroke-linecap: butt; stroke-dashoffset: 0; stroke-linejoin: miter; stroke-miterlimit: 4; fill: rgb(47,46,65); fill-rule: nonzero; opacity: 1;" vector-effect="non-scaling-stroke"  transform=" translate(-192.4, -135.79)" d="M 212.3273 169.6914 L 179.72945 169.6914 C 179.77729000000002 167.47585999999998 179.45185 165.27675 178.7812 163.28369999999998 C 178.76232000000002 165.4954 178.42623 167.67735 177.79418 169.6914 L 176.31364000000002 169.6914 C 174.04886000000002 169.68803 172.21348000000003 167.03303 172.21116 163.75690999999998 C 164.55088 155.24936999999997 165.55567000000002 144.81140999999997 172.21116 133.11450999999997 C 172.21235000000001 118.11142999999997 181.08007 95.62059999999997 190.71573 105.03197999999998 C 191.02664000000001 105.00851999999998 195.91124000000002 101.87886999999998 196.22216 101.87886999999998 C 204.69918 101.88880999999998 207.61419 112.95468999999997 210.17419 124.64467999999998 C 213.09125 122.70022999999998 215.10084 130.81673999999998 216.55486000000002 145.10271999999998 C 216.97917 149.27166999999997 217.35618000000002 153.96602 217.69461 159.08905 C 218.62910000000002 163.38746999999998 216.9778 167.96787999999998 214.00632000000002 169.31967999999998 C 213.46230000000003 169.56715999999997 212.89549000000002 169.69386999999998 212.32520000000002 169.69546999999997 L 212.32731 169.69138999999998 Z" stroke-linecap="round" />
</g>
<g transform="matrix(1.19 0 0 1.19 448.38 299.69)" id="d"  >
<circle style="stroke: none; stroke-width: 1; stroke-dasharray: none; stroke-linecap: butt; stroke-dashoffset: 0; stroke-linejoin: miter; stroke-miterlimit: 4; fill: rgb(255,182,182); fill-rule: nonzero; opacity: 1;" vector-effect="non-scaling-stroke"  cx="0" cy="0" r="23.9542" />
</g>
<g transform="matrix(1.19 0 0 1.19 444.86 311.29)" id="e-304"  >
<path style="stroke: none; stroke-width: 1; stroke-dasharray: none; stroke-linecap: butt; stroke-dashoffset: 0; stroke-linejoin: miter; stroke-miterlimit: 4; fill: rgb(47,46,65); fill-rule: nonzero; opacity: 1;" vector-effect="non-scaling-stroke"  transform=" translate(-202.71, -142.32)" d="M 207.95313 170.50231 L 207.95313 170.50231 C 205.70872999999997 173.49364 201.78363 174.68392 198.25582 173.44299999999998 L 187.58815 169.69061 C 186.58967 169.69061 185.74039000000002 169.10565 185.69383000000002 168.34784 L 185.68843 168.26434999999998 C 185.58128000000002 166.68461 182.66431 166.41884 181.98706 167.91464 C 181.71463 168.51632999999998 181.40437 169.10900999999998 181.05688 169.69061 L 179.12379 169.69061 L 179.12379 123.07849999999999 C 179.12379 115.08366 187.65394 108.60256 198.17641 108.60256 L 198.17644 108.60256 C 207.16038 108.60256 214.92358000000002 113.37084 216.80609 120.04518999999999 C 216.80609 120.04518999999999 230.16134000000002 132.49121 222.29011 139.48853 C 214.41888 146.48585 225.87014 152.18135999999998 225.87014 152.18135999999998 C 228.14434 160.24441 220.91517 173.34947999999997 210.67941 176.01874999999998 C 209.47538999999998 176.33272999999997 209.22977 170.50232 207.95311999999998 170.50232 Z" stroke-linecap="round" />
</g>
<g transform="matrix(1.19 0 0 1.19 443.8 299.94)"  >
<path style="stroke: none; stroke-width: 1; stroke-dasharray: none; stroke-linecap: butt; stroke-dashoffset: 0; stroke-linejoin: miter; stroke-miterlimit: 4; fill: rgb(47,46,65); fill-rule: nonzero; opacity: 1;" vector-effect="non-scaling-stroke"  transform=" translate(-201.82, -132.78)" d="M 235.50872 129.01287 C 234.52654 130.40780999999998 231.95998 134.06511999999998 223.95313000000002 133.5023 C 221.91410000000002 133.35547 214.67102000000003 131.36218 209.39944000000003 131.46008999999998 C 205.90577000000002 131.52125999999998 203.75489000000002 131.49675999999997 199.45305000000002 131.46008999999998 C 194.36800000000002 131.41109999999998 192.97551 131.31325999999999 191.99326000000002 130.23647999999997 C 190.09105000000002 128.14406999999997 191.65762 124.42430999999998 190.74996000000002 124.11840999999997 C 189.99157000000002 123.86141999999997 188.02713000000003 126.16181999999996 187.02006000000003 129.01286999999996 C 184.90644000000003 134.99635999999995 192.49061000000003 143.32916999999998 193.23655000000002 151.03791999999996 C 194.03228000000001 159.34622999999996 186.19951000000003 143.42699999999996 187.02006000000003 151.03791999999996 C 187.94009000000003 159.60321999999996 191.23486000000003 158.95466999999996 191.19753000000003 162.05043999999995 C 191.18516000000002 162.51541999999995 191.04834000000002 162.91915999999995 190.74996000000002 163.27404999999996 C 190.48892 163.59219999999996 190.2278 163.71452999999997 185.77676000000002 164.49765999999997 C 180.45548000000002 165.43978999999996 177.78236 165.90476999999996 177.07367000000002 165.72126999999998 C 175.24606000000003 165.25628999999998 173.39348 162.67448 172.10047000000003 160.82680999999997 C 169.96196000000003 157.80443999999997 171.47882000000004 160.85122999999996 172.10047000000003 157.15596999999997 C 172.69731000000002 153.58295999999996 174.56225000000003 153.11805999999996 174.58707000000004 149.81428999999997 C 174.61196000000004 145.65396999999996 171.66535000000005 144.39368999999996 169.61387000000005 140.02537999999998 C 165.82182000000006 131.94948 169.52683000000005 122.60112999999998 170.85717000000005 119.22393999999998 C 171.49609000000007 117.60436999999999 172.65500000000006 115.55457999999999 174.68603000000004 112.16788999999999 C 176.31654000000003 109.44905999999999 178.48058000000003 107.05401999999998 181.11980000000005 105.25947999999998 C 185.07543000000007 102.56984999999999 189.66978000000006 100.72689999999999 194.63741000000005 99.99666999999998 C 197.35837000000004 99.59668999999998 200.13250000000005 99.80673999999998 202.80751000000004 100.43929999999997 L 209.73682000000002 102.07785999999997 C 212.64945000000003 102.76658999999998 215.39512000000002 104.01487999999998 217.81610000000003 105.75103999999997 L 217.81610000000003 105.75103999999997 C 220.07260000000002 105.75842999999998 222.02930000000003 107.19377999999998 222.80300000000003 109.27993999999998 C 222.88397000000003 109.49825999999999 222.95764000000003 109.62541999999998 223.01828000000003 109.60676999999998 C 235.50869000000003 105.76418999999999 235.50029000000004 117.14522999999998 235.36333000000002 124.25483999999999 C 235.34931000000003 124.98250999999999 235.37584 125.62647999999999 235.47142000000002 126.14956999999998 L 235.47142000000002 126.18630999999998 C 235.72009000000003 127.59341999999998 235.78224000000003 128.62129 235.50868000000003 129.01285 Z" stroke-linecap="round" />
</g>
<g transform="matrix(1.19 0 0 1.19 280.53 796.35)"  >
<path style="stroke: none; stroke-width: 1; stroke-dasharray: none; stroke-linecap: butt; stroke-dashoffset: 0; stroke-linejoin: miter; stroke-miterlimit: 4; fill: rgb(242,242,242); fill-rule: nonzero; opacity: 1;" vector-effect="non-scaling-stroke"  transform=" translate(-64.6, -550.01)" d="M 88.49775 583.67497 C 86.43178999999999 583.8044 85.28999999999999 581.2376300000001 86.85301 579.74165 L 87.00851 579.12346 C 86.98814 579.07421 86.96768 579.0250100000001 86.94705 578.9758400000001 C 84.85278000000001 573.9831200000001 81.1031 578.6958500000001 75.69938 579.0311700000001 C 67.75221 579.5243300000001 67.87092000000001 585.5348900000001 70.94953000000001 592.5627900000001 C 71.78528000000001 594.47063 64.69087 579.07663 64.69087 568.74247 C 64.69087 566.14595 64.833 563.5494600000001 65.12362 560.95952 C 65.36262 558.84098 65.69201 556.73542 66.11833 554.64918 C 68.42408 543.37198 73.41685 532.63093 80.61845 523.65956 C 84.08041999999999 521.7670800000001 86.96750999999999 518.8089100000001 88.7114 515.26304 C 89.33789 513.98413 94.72062 512.90385 94.95313 511.5022900000001 C 94.55915 511.55397000000005 88.57575 505.2582000000001 88.8729 504.89006000000006 C 88.32384 504.05689000000007 87.34112 503.6427300000001 86.74146 502.82972000000007 C 83.75914 498.78631000000007 79.65026 499.4923100000001 77.50525 504.98699000000005 C 72.92301 507.29965000000004 72.87866 511.13505000000004 75.69030000000001 514.8238200000001 C 77.47908000000001 517.17064 77.72486 520.3461500000001 79.29438 522.8586 C 79.13287 523.0653100000001 78.96494 523.2655500000001 78.80348000000001 523.47226 C 78.74142 523.55186 78.67953000000001 523.63159 78.61782000000001 523.71144 C 76.08443000000001 526.9895300000001 71.02589 526.14988 69.61509000000001 522.25455 C 69.51219 521.9704399999999 68.63896000000001 537.36024 69.29604 521.43126 C 69.95312 505.5022799999999 64.22407000000001 513.6112099999999 61.32359 509.93781999999993 C 57.85918 505.5502199999999 50.811840000000004 507.54428999999993 50.20139 513.1013099999999 C 50.195550000000004 513.1544799999999 50.18986 513.2075899999999 50.184270000000005 513.2607599999999 C 50.61319 513.5027199999998 51.03338000000001 513.7598199999999 51.44382 514.0312799999999 C 53.783170000000005 515.57855 52.97385 519.20516 50.201840000000004 519.6324199999999 L 50.139070000000004 519.6420899999999 C 50.2941 521.18575 50.558910000000004 522.7165299999999 50.94641 524.22146 C 47.24552 538.53374 55.23261 543.7488 66.63955 543.98533 L 67.23395 544.83118 C 66.15378999999999 547.93925 65.28483 551.1219 64.63275999999999 554.34558 C 64.01916999999999 557.33601 63.59284999999999 560.35875 63.35390999999999 563.3944600000001 L 63.34395999999999 563.52425 C 63.14607999999999 566.1067300000001 59.87861999999999 567.2050800000001 58.23634999999999 565.20226 C 57.81838999999999 564.69254 57.39067999999999 564.24572 56.959589999999984 563.89179 C 52.01397999999998 559.82915 45.026769999999985 558.3331000000001 39.69132999999998 555.06754 C 37.122999999999976 553.49558 33.83187999999998 555.52699 34.28011999999998 558.50462 L 34.30193999999998 558.64723 C 35.09636999999998 558.9701200000001 35.87140999999998 559.34478 36.62064999999998 559.7645600000001 C 37.04992999999998 560.00678 37.470469999999985 560.2640500000001 37.881239999999984 560.5357700000001 C 40.220939999999985 562.0834400000001 39.41097999999998 565.71054 36.63820999999999 566.13628 L 36.575389999999985 566.14593 C 36.53018999999998 566.15239 36.491419999999984 566.1588800000001 36.44627999999999 566.16537 L 36.487329999999986 566.26237 C 38.271149999999984 570.4586800000001 42.534669999999984 573.1766 47.08757999999999 572.9276500000001 C 52.44679999999999 572.6346100000001 59.10364999999999 577.1154600000001 64.97505999999998 585.0381000000001 L 64.98152999999998 585.03812 C 66.14411999999997 590.1019 67.84280999999997 595.04939 70.02592999999997 599.7643300000001 L 88.04611999999997 599.7643300000001 C 88.11074999999997 599.5641100000001 88.16885999999997 599.3574100000001 88.22700999999998 599.1571600000001 C 86.56060999999998 599.2605700000001 84.88129999999998 599.1636500000001 83.24071999999998 598.8601400000001 C 84.57772999999999 597.2195500000001 85.91467999999998 595.5660500000001 87.25168999999998 593.9255200000001 C 87.28397999999999 593.8932200000002 87.30984999999998 593.8609200000001 87.33565999999998 593.8286300000001 C 88.01382999999997 592.9890300000001 88.69847999999998 592.1558000000001 89.37664999999997 591.3161800000001 L 89.37700999999997 591.3151800000002 C 89.41945999999997 588.7376200000002 89.11048999999997 586.1685400000001 88.49824999999997 583.6753100000002 L 88.49773999999996 583.6749500000002 Z" stroke-linecap="round" />
</g>
<g transform="matrix(1.19 0 0 1.19 420.02 857.56)"  >
<path style="stroke: none; stroke-width: 1; stroke-dasharray: none; stroke-linecap: butt; stroke-dashoffset: 0; stroke-linejoin: miter; stroke-miterlimit: 4; fill: rgb(204,204,204); fill-rule: nonzero; opacity: 1;" vector-effect="non-scaling-stroke"  transform=" translate(-181.84, -601.45)" d="M 0 601.45348 C 0 602.11351 0.53003 602.6434800000001 1.19006 602.6434800000001 L 362.48004 602.6434800000001 C 363.14000999999996 602.6434800000001 363.67004 602.11351 363.67004 601.45348 C 363.67004 600.79351 363.14000999999996 600.26348 362.48004 600.26348 L 1.19006 600.26348 C 0.5300299999999999 600.26348 0 600.79351 0 601.45348 Z" stroke-linecap="round" />
</g>
<g transform="matrix(1.19 0 0 1.19 516.1 527.37)" id="f-305"  >
<path style="stroke: none; stroke-width: 1; stroke-dasharray: none; stroke-linecap: butt; stroke-dashoffset: 0; stroke-linejoin: miter; stroke-miterlimit: 4; fill: rgb(255,182,182); fill-rule: nonzero; opacity: 1;" vector-effect="non-scaling-stroke"  transform=" translate(-262.58, -323.93)" d="M 256.43041 336.09146 C 256.89425 342.48195999999996 260.56756 347.42266 264.63447 347.1268 C 268.70138000000003 346.83094 271.62112 341.41112 271.15626000000003 335.0184 C 271.00559000000004 332.46222 270.24497 329.97929999999997 268.93800000000005 327.77736 L 266.63074000000006 300.72537 L 253.95911000000007 302.07869 L 257.57898000000006 328.60348 C 256.6036000000001 330.97194 256.20975000000004 333.53958 256.43041000000005 336.09146 Z" stroke-linecap="round" />
</g>
<g transform="matrix(1.19 0 0 1.19 505.24 441.09)"  >
<path style="stroke: none; stroke-width: 1; stroke-dasharray: none; stroke-linecap: butt; stroke-dashoffset: 0; stroke-linejoin: miter; stroke-miterlimit: 4; fill: rgb(108,99,255); fill-rule: nonzero; opacity: 1;" vector-effect="non-scaling-stroke"  transform=" translate(-253.46, -251.41)" d="M 237.03203 178.50231 C 237.03203 178.50231 255.4603 179.30354 256.26153 188.91828999999998 C 257.06276 198.53303999999997 265.87628 260.22767999999996 265.87628 260.22767999999996 L 269.88243 321.92231999999996 L 255.46031 324.32600999999994 L 237.95314 251.41415999999992 L 237.03204 178.5023099999999 Z" stroke-linecap="round" />
</g>
</svg>